<svg xmlns="http://www.w3.org/2000/svg" width="20" height="23.076" viewBox="0 0 20 23.076">
  <path id="Logo_Tiktok_SVG_Vector_Icon" data-name="Logo Tiktok SVG Vector Icon" d="M65.468,20.935a5.254,5.254,0,0,1-.454-.264,6.387,6.387,0,0,1-1.167-.991,5.5,5.5,0,0,1-1.315-2.713h0A3.342,3.342,0,0,1,62.485,16H58.522V31.324c0,.206,0,.409-.009.61,0,.025,0,.048,0,.075a.166.166,0,0,1,0,.034v.009a3.365,3.365,0,0,1-1.693,2.671,3.307,3.307,0,0,1-1.64.433,3.365,3.365,0,0,1,0-6.73,3.312,3.312,0,0,1,1.029.163l0-4.035a7.362,7.362,0,0,0-5.673,1.659,7.778,7.778,0,0,0-1.7,2.093,7.251,7.251,0,0,0-.875,3.329,7.856,7.856,0,0,0,.425,2.631v.01a7.745,7.745,0,0,0,1.076,1.962,8.054,8.054,0,0,0,1.717,1.62v-.01l.01.01a7.416,7.416,0,0,0,4.046,1.218,7.162,7.162,0,0,0,3-.664,7.535,7.535,0,0,0,2.438-1.833,7.618,7.618,0,0,0,1.329-2.208,8.271,8.271,0,0,0,.478-2.525v-8.13c.048.029.688.452.688.452a9.166,9.166,0,0,0,2.362.976,13.6,13.6,0,0,0,2.424.332V21.541A5.139,5.139,0,0,1,65.468,20.935Z" transform="translate(-47.959 -16)" fill="#343539"/>
</svg>
