<svg xmlns="http://www.w3.org/2000/svg" width="116.769" height="109.327" viewBox="0 0 116.769 109.327">
  <g id="Groupe_903" data-name="Groupe 903" transform="translate(-82.027 -29.106)" opacity="0.5">
    <path id="Tracé_446" data-name="Tracé 446" d="M260.875,289.371H239.723v-9.256h13.731a5.6,5.6,0,0,0,5.591-5.591V251.747a5.593,5.593,0,1,0-11.186,0v16.777h-8.136V235.073a9.861,9.861,0,1,0-19.722,0v20.842H210.24V234.973a7.118,7.118,0,1,0-14.236,0v28.876a7.119,7.119,0,0,0,7.209,7.094h.042c.056.008.217.022.276.022H220v18.406H164.18a1.22,1.22,0,0,0,0,2.441h96.7a1.22,1.22,0,0,0,0-2.441Zm-39.654-20.847-17.626,0a1.932,1.932,0,0,0-.476,0,4.679,4.679,0,0,1-4.676-4.676V234.972a4.678,4.678,0,0,1,9.356,0v22.163a1.221,1.221,0,0,0,1.22,1.22h12.2a1.221,1.221,0,0,0,1.22-1.22V235.073a7.421,7.421,0,1,1,14.842,0v34.671a1.221,1.221,0,0,0,1.22,1.22H249.08a1.221,1.221,0,0,0,1.22-1.22v-18a3.153,3.153,0,0,1,6.306,0v22.777a3.142,3.142,0,0,1-3.031,3.158,2.647,2.647,0,0,0-.324-.008H238.5a1.221,1.221,0,0,0-1.22,1.22l0,10.477H222.441V269.744a1.22,1.22,0,0,0-1.22-1.22Z" transform="translate(-63.299 -153.379)" fill="#343539"/>
    <path id="Tracé_447" data-name="Tracé 447" d="M89.094,519.68H83.908a1.22,1.22,0,0,0,0,2.441h5.186a1.22,1.22,0,0,0,0-2.441Z" transform="translate(-0.516 -383.688)" fill="#343539"/>
    <path id="Tracé_448" data-name="Tracé 448" d="M128.778,519.68h-4.271a1.22,1.22,0,0,0,0,2.441h4.271a1.22,1.22,0,0,0,0-2.441Z" transform="translate(-32.27 -383.688)" fill="#343539"/>
    <path id="Tracé_449" data-name="Tracé 449" d="M144.069,107.278a16.13,16.13,0,1,0-16.13-16.13,16.147,16.147,0,0,0,16.13,16.13Zm0-29.823a13.69,13.69,0,1,1-13.69,13.69A13.705,13.705,0,0,1,144.069,77.454Z" transform="translate(-35.908 -35.909)" fill="#343539"/>
    <path id="Tracé_450" data-name="Tracé 450" d="M196.049,37.184a1.221,1.221,0,0,0,1.22-1.22,9.157,9.157,0,0,1,.3-2.535,11.615,11.615,0,0,0,.371-3.1,1.22,1.22,0,0,0-2.441,0,9.149,9.149,0,0,1-.3,2.533,11.631,11.631,0,0,0-.371,3.1,1.218,1.218,0,0,0,1.22,1.223Z" transform="translate(-88.224)" fill="#343539"/>
    <path id="Tracé_451" data-name="Tracé 451" d="M195.484,233.13a9.149,9.149,0,0,1-.3,2.533,11.631,11.631,0,0,0-.371,3.1,1.22,1.22,0,0,0,2.441,0,9.157,9.157,0,0,1,.3-2.535,11.615,11.615,0,0,0,.371-3.1,1.22,1.22,0,1,0-2.441,0Z" transform="translate(-88.208 -158.614)" fill="#343539"/>
    <path id="Tracé_452" data-name="Tracé 452" d="M118.57,65.6a11.611,11.611,0,0,0,1.93,2.457,1.221,1.221,0,0,0,1.728-1.725,9.2,9.2,0,0,1-1.576-2.006,11.611,11.611,0,0,0-1.93-2.457A1.22,1.22,0,0,0,117,63.589,9.146,9.146,0,0,1,118.57,65.6Z" transform="translate(-27.071 -25.342)" fill="#343539"/>
    <path id="Tracé_453" data-name="Tracé 453" d="M264.028,207.719a11.559,11.559,0,0,0-1.933-2.457,1.22,1.22,0,0,0-1.725,1.725,9.256,9.256,0,0,1,1.576,2.006,11.558,11.558,0,0,0,1.933,2.457,1.221,1.221,0,0,0,1.728-1.725,9.11,9.11,0,0,1-1.579-2.006Z" transform="translate(-139.206 -137.496)" fill="#343539"/>
    <path id="Tracé_454" data-name="Tracé 454" d="M259.057,69.65a1.223,1.223,0,0,0,.864-.357,9.255,9.255,0,0,1,2.006-1.576,11.558,11.558,0,0,0,2.457-1.933,1.22,1.22,0,1,0-1.725-1.725,9.255,9.255,0,0,1-2.006,1.576,11.559,11.559,0,0,0-2.457,1.933,1.219,1.219,0,0,0,.861,2.082Z" transform="translate(-137.506 -27.058)" fill="#343539"/>
    <path id="Tracé_455" data-name="Tracé 455" d="M118.515,211.108a11.5,11.5,0,0,0,2.46-1.933,1.22,1.22,0,1,0-1.725-1.725,9.087,9.087,0,0,1-2.006,1.574,11.5,11.5,0,0,0-2.46,1.933,1.221,1.221,0,0,0,1.728,1.725,9.046,9.046,0,0,1,2-1.574Z" transform="translate(-25.341 -139.208)" fill="#343539"/>
    <path id="Tracé_456" data-name="Tracé 456" d="M284.85,143.119a1.221,1.221,0,0,0,1.22,1.22,9.149,9.149,0,0,1,2.533.3,11.615,11.615,0,0,0,3.1.371,1.22,1.22,0,0,0,0-2.441,9.15,9.15,0,0,1-2.533-.3,11.614,11.614,0,0,0-3.1-.371A1.22,1.22,0,0,0,284.85,143.119Z" transform="translate(-158.632 -88.217)" fill="#343539"/>
    <path id="Tracé_457" data-name="Tracé 457" d="M83.25,144.348a9.15,9.15,0,0,1,2.533.3,11.63,11.63,0,0,0,3.1.371,1.22,1.22,0,1,0,0-2.441,9.157,9.157,0,0,1-2.535-.3,11.615,11.615,0,0,0-3.1-.371,1.22,1.22,0,1,0,0,2.441Z" transform="translate(0 -88.224)" fill="#343539"/>
  </g>
</svg>
