<svg xmlns="http://www.w3.org/2000/svg" width="20" height="20" viewBox="0 0 20 20">
  <g id="RS_instagram" transform="translate(-9 -5.69)">
    <path id="Tracé_438" data-name="Tracé 438" d="M18.983,7.493c2.67,0,2.976,0,4.039.06A5.527,5.527,0,0,1,24.88,7.9a3.312,3.312,0,0,1,1.9,1.9,5.527,5.527,0,0,1,.344,1.858c.047,1.054.06,1.369.06,4.039s0,2.976-.06,4.039a5.527,5.527,0,0,1-.344,1.858,3.312,3.312,0,0,1-1.9,1.9,5.527,5.527,0,0,1-1.858.344c-1.054.047-1.369.06-4.039.06s-2.976,0-4.039-.06a5.527,5.527,0,0,1-1.858-.344,3.312,3.312,0,0,1-1.9-1.9,5.527,5.527,0,0,1-.344-1.858c-.047-1.054-.06-1.369-.06-4.039s0-2.976.06-4.039a5.527,5.527,0,0,1,.344-1.858,3.312,3.312,0,0,1,1.9-1.9,5.527,5.527,0,0,1,1.866-.344c1.054-.047,1.369-.06,4.039-.06m0-1.8c-2.717,0-3.057,0-4.124.06a7.343,7.343,0,0,0-2.428.463A5.1,5.1,0,0,0,9.514,9.138a7.338,7.338,0,0,0-.472,2.428C9,12.625,9,12.973,9,15.69s0,3.057.06,4.124a7.338,7.338,0,0,0,.463,2.428,5.1,5.1,0,0,0,2.925,2.925,7.343,7.343,0,0,0,2.428.463c1.067.047,1.407.06,4.124.06s3.057,0,4.124-.06a7.343,7.343,0,0,0,2.428-.463,5.1,5.1,0,0,0,2.925-2.925,7.338,7.338,0,0,0,.463-2.428c.047-1.067.06-1.407.06-4.124s0-3.057-.06-4.124a7.338,7.338,0,0,0-.463-2.428,5.1,5.1,0,0,0-2.925-2.925,7.343,7.343,0,0,0-2.428-.463C22.057,5.7,21.717,5.69,19,5.69" transform="translate(0 0)" fill="#343539"/>
    <path id="Tracé_439" data-name="Tracé 439" d="M25.53,17.13a5.136,5.136,0,1,0,5.132,5.136A5.136,5.136,0,0,0,25.53,17.13m0,8.469a3.333,3.333,0,1,1,3.333-3.333A3.333,3.333,0,0,1,25.53,25.6" transform="translate(-6.547 -6.576)" fill="#343539"/>
    <path id="Tracé_440" data-name="Tracé 440" d="M44.608,15.033a1.909,1.909,0,1,0-.013,0" transform="translate(-19.09 -4.679)" fill="#343539"/>
  </g>
</svg>
