<svg xmlns="http://www.w3.org/2000/svg" width="52" height="52"><path id="Tracé_443" data-name="Tracé 443" d="m33.241 203.061-1.358.187a1.121 1.121 0 0 1-.733.374 1.322 1.322 0 0 0-1.059.312.556.556 0 0 1-.423.1l-2.513.162-.394.3H24.4c-.31-.187-.608-.512-.935-.125-.236.209-.5.163-.721-.125a.915.915 0 0 1-1.363 0l-3.707-.15-.383-.411h-.631a.767.767 0 0 1-.535-.1 3.393 3.393 0 0 0-1.69-.512 2.523 2.523 0 0 0-.389-.3 2.3 2.3 0 0 1-.868-.337 1.612 1.612 0 0 0-.738-.3 6.2 6.2 0 0 1-.828-.474 16.331 16.331 0 0 1-3.544-2.482 12.689 12.689 0 0 1-1.284-1.247c-.372-.474-.766-.86-1.127-1.247a26.059 26.059 0 0 1-4.14-7.086c-.248-.574-.484-1.172-.766-1.858L0 184.589v-1.684l.141-.686.059-1.982c.034-.2.056-.349.084-.5a43.241 43.241 0 0 1 2.1-7.146q.387-1.139.839-2.157a4.735 4.735 0 0 1 .721-1.335 1.664 1.664 0 0 0 .242-.461c.208-.436.406-.911.625-1.322a9.279 9.279 0 0 1 .614-.948c.513-.724.941-1.709 1.476-2.357a9.629 9.629 0 0 1 1.07-1.571 23.879 23.879 0 0 1 2.169-2.607 2.194 2.194 0 0 1 .687-.648 2.9 2.9 0 0 0 .563-.549c.237-.187.445-.524.682-.7.507-.362 1.008-.773 1.521-1.123a3.683 3.683 0 0 1 .642-.524 3.368 3.368 0 0 1 1.037-.574c.321-.362.687-.424 1.014-.761a.714.714 0 0 1 .423-.112 1.193 1.193 0 0 0 .524-.262c.366-.325.766-.349 1.127-.636a1.259 1.259 0 0 1 .659-.112l.344-.374a4.118 4.118 0 0 0 .777-.125 3.005 3.005 0 0 1 .958-.361 3.807 3.807 0 0 0 .873-.063l.958-.087.332-.274h2.355a4.285 4.285 0 0 0 .62.337 2.38 2.38 0 0 0 .563.075l.518.673.039.5c-.287.224-.287.224-1.91.15l-.406-.3a1.475 1.475 0 0 0-1.273.3l-.755.075-1.076.137a1.891 1.891 0 0 1-1.284.461.718.718 0 0 1-.271.262c-.473 0-.89.574-1.358.648-.316 0-.6.512-.929.474-.823.761-1.69 1.148-2.513 2-.2.212-.411.249-.608.424a7.729 7.729 0 0 0-.563.661 1.313 1.313 0 0 1-.3.237 3.659 3.659 0 0 0-1.262 1.347 9.861 9.861 0 0 1-1.211 1.522 25.075 25.075 0 0 0-2.056 2.943 21.55 21.55 0 0 0-1.73 3.218 20.955 20.955 0 0 0-1.363 2.694c-.265.549-.423 1.247-.671 1.846a14.269 14.269 0 0 0-.608 1.958c-.51 1.815-.966 3.7-1.363 5.65-.078.356-.146.723-.2 1.1a18.017 18.017 0 0 0-.192 2.806v1.684l.451 2.145.377.835a19.075 19.075 0 0 0 3.211 5.114 10.364 10.364 0 0 0 1.262 1.322 11.386 11.386 0 0 0 1.425 1.023 2.08 2.08 0 0 0 1.037.586 1.714 1.714 0 0 0 1.042.486 1.633 1.633 0 0 1 .428.337l.845.15a2.487 2.487 0 0 0 .6.374c.394.075.789.087 1.172.125l.406.337.98.075h.918l.49.374 4.293.15c.3.187.6.524.929.15a.069.069 0 0 1 .1 0 1.435 1.435 0 0 0 1.172.224h1.189a1.223 1.223 0 0 0 .851-.249.764.764 0 0 1 .529-.112c.721 0 1.437-.062 2.158-.087a.957.957 0 0 0 .631-.374l1.6-.187.344-.325.924-.2a1.351 1.351 0 0 1 .4-.325 2.149 2.149 0 0 0 1.127-.512 3.22 3.22 0 0 0 1.255-.566 3.885 3.885 0 0 0 1.127-.724 3.569 3.569 0 0 0 1.025-.623c.327 0 .592-.561.929-.561a.813.813 0 0 0 .406-.287c.2-.187.417-.2.614-.424a5.35 5.35 0 0 1 1-.86 6.214 6.214 0 0 0 1.127-.923c.349-.387.732-.623 1.087-1a6.771 6.771 0 0 0 .9-.686c.152-.2.321-.337.479-.537s.361-.524.563-.786a3.993 3.993 0 0 0 1.217-1.459c.248-.325.49-.648.727-1.01a14.766 14.766 0 0 0 1.69-2.956c.163-.411.271-.923.456-1.322s.287-.711.473-1.185l.862-3.879a26.569 26.569 0 0 1 .2-2.856 2.681 2.681 0 0 0 0-.923 17.062 17.062 0 0 1-.18-2.17c-.2-1.022-.438-2-.716-2.931a16.4 16.4 0 0 0-1.566-3.554 18.16 18.16 0 0 0-2.473-3.318 11.379 11.379 0 0 0-1.887-1.646 9.513 9.513 0 0 0-1.634-1.135c-.1 0-.2-.274-.293-.274-.366 0-.687-.486-1.037-.537s-.614-.449-.935-.5a1.066 1.066 0 0 1-.879-.387.457.457 0 0 0-.316-.1 1.339 1.339 0 0 1-.947-.362.546.546 0 0 0-.428-.112l-.952-.1-.4-.324-2.253-.15-.321-.312-2.62-.1-.394-.337c-.456-.137-.958-.087-1.516-.2.1-.187.135-.325.175-.325a33.915 33.915 0 0 1 3.56 0h2.22l.456.362 2.208.125.361.337 1.167.038.3.287c.242 0 .5.137.744.137s.468.4.721.424a1.289 1.289 0 0 1 .727.4 2.862 2.862 0 0 0 .626.274c.242.15.473.362.7.537a2.3 2.3 0 0 0 .3.212 1.725 1.725 0 0 1 .518.249c.293.287.62.374.907.736.406.5.856.8 1.273 1.247a28.163 28.163 0 0 1 2.5 3.218 6.782 6.782 0 0 1 .417.749 6.323 6.323 0 0 0 .49.923 4.845 4.845 0 0 1 .648 1.247 33.232 33.232 0 0 1 1.865 6.335A18.276 18.276 0 0 1 52 176.7v2.894l-.175.9-.068 1.609c-.152.736-.282 1.484-.456 2.17a19.4 19.4 0 0 1-1.127 3.455c-.1.224-.2.449-.3.686a12.055 12.055 0 0 1-1.239 2.283c-.332.461-.642 1.01-.992 1.409-.563.661-1.093 1.5-1.69 2.083a6.832 6.832 0 0 0-.766.773 6.3 6.3 0 0 1-.777.786 9.011 9.011 0 0 1-.693.611 2.448 2.448 0 0 1-.806.648 10.536 10.536 0 0 1-1.9 1.584 10.675 10.675 0 0 1-1.831 1.247c-.377.486-.845.337-1.223.823a1.554 1.554 0 0 0-.828.449c-.225.2-.49.15-.727.374a6.234 6.234 0 0 0-1.031.574c-.563 0-1.127.636-1.69.623a1.35 1.35 0 0 0-.434.387Z" transform="translate(-.002 -152.55)" fill="#f8efec"/></svg>